# xmcd CD database file
# Copyright 1993-1996 (C) Ti Kan
#
# Track frame offsets:
#    150
#    13007
#    26912
#    40580
#    53280
#    67462
#    80835
#    92235
#    106155
#    118642
#    130255
#    143077
#    156827
#    169347
#    182760
#    195660
#    208110
#    220187
#    233017
#    244227
#
# Disc length: 3408 seconds
#
# Revision: 0
# Processed by: cddbd v1.4b41PL1 Copyright (c) Steve Scherf et al.
# Submitted via: MyCDplayer 2.4.0c  (wjohn@fix.net)
#
DISCID=1f0d4e14
DTITLE=Various Artist - 
DTITLE=Decca Country Classics: 1934-1973 - Disc 1
DYEAR=1900
DGENRE=
TTITLE0=Texas Plains - Stuart Hamblen and His Covered
TTITLE1=Cattle Call - Tex Owens
TTITLE2=Just Because - Shelton Brothers
TTITLE3=Listen To The Mockingbird - Curley Fox
TTITLE4=The Eyes Of Texas-Milton Brown and His Brownies
TTITLE5=My Dixie Darling - The Carter Family
TTITLE6=La Bonne Valse - Leo Soileau's Rhythm Boys
TTITLE7=The Last Letter - Rex Griffin
TTITLE8=Bile Dem Cabbage Down - Clayton McMichen's
TTITLE9=Short Life Of Trouble - Riley Puckett
TTITLE10=Singing In The Saddle-Tex Ritter and His Texans
TTITLE11=I'll Get Mine Bye And Bye No. 2 - Buddy Jones
TTITLE12=Sparkling Blue Eyes -Bill Carlisle's Kentucky
TTITLE13=Truck Drivers Blues - Cliff Bruner and His Boys
TTITLE14=You Are My Sunshine - Jimmie Davis w/Charles
TTITLE15=Cool Water - Sons Of The Pioneers
TTITLE16=Walking The Floor Over You - Ernest Tubb
TTITLE17=Milk Cow Blues - Johnny Lee Wills and His Boys
TTITLE18=They Took The Stars Out Of Heaven - Floyd
TTITLE19=Gospel Cannonball - Delmore Brothers
EXTD=
EXTT0=Wagon Jubilee
EXTT1=
EXTT2=
EXTT3=
EXTT4=
EXTT5=
EXTT6=
EXTT7=
EXTT8=Georgia Wildcats
EXTT9=
EXTT10=
EXTT11=
EXTT12=Boys
EXTT13=
EXTT14=Mitchell's Orchestra
EXTT15=
EXTT16=
EXTT17=
EXTT18=Tillman and His Favorite Playboys
EXTT19=
PLAYORDER=
